<svg width="240" height="40" viewBox="0 0 240 40" fill="none" xmlns="http://www.w3.org/2000/svg">
<path d="M16.6149 15.0862C17.4713 13.5291 17.8996 11.7729 17.8561 9.99645C17.9053 8.21045 17.4769 6.44367 16.6149 4.8785C15.8066 3.46197 14.6134 2.30339 13.1734 1.53703C11.6116 0.707679 9.86401 0.290346 8.09587 0.324512H0V19.6543H8.03945C9.80565 19.686 11.5516 19.274 13.117 18.4559C14.5798 17.688 15.7932 16.519 16.6149 15.0862ZM10.9732 15.2413C10.0311 15.7531 8.97014 16.006 7.89841 15.9744H4.14667V4.00436H7.89841C8.96158 3.96228 10.0171 4.20054 10.959 4.69521C11.8239 5.16671 12.5304 5.88274 12.9901 6.75367C13.4915 7.74439 13.7387 8.84421 13.7094 9.95415C13.7399 11.0642 13.4927 12.1643 12.9901 13.1546C12.537 14.0375 11.8295 14.7643 10.959 15.2413H10.9732Z" fill="white"/>
<path d="M33.5118 13.4507C34.6188 12.9409 35.5474 12.1109 36.1775 11.068C36.8195 9.93964 37.1414 8.65759 37.1084 7.35994C37.1431 6.0442 36.8215 4.74354 36.1775 3.5955C35.5451 2.54763 34.6179 1.70912 33.5118 1.18456C32.2317 0.591732 30.8319 0.302238 29.4216 0.338622H21.7629V19.6543H25.8532V14.2685H29.619L33.0323 19.6684H37.4469L33.5118 13.4507ZM32.1014 9.81317C31.3096 10.4594 30.2999 10.7773 29.2805 10.7014H25.9378V3.97617H29.2805C30.2972 3.90344 31.3041 4.21546 32.1014 4.85031C32.4223 5.17825 32.6709 5.56973 32.8312 5.99954C32.9915 6.42935 33.06 6.88796 33.0323 7.34584C33.0505 7.80213 32.9734 8.25722 32.8058 8.68204C32.6383 9.10687 32.384 9.49211 32.0591 9.81317H32.1014Z" fill="white"/>
<path d="M51.3256 0.324516H47.2776L39.3933 19.6543H43.6246L45.1338 15.5092H53.3284L55.0068 19.6543H59.2381L51.3256 0.324516ZM46.4596 12.1113L49.2804 4.72341L52.1013 12.1113H46.4596Z" fill="white"/>
<path d="M74.0902 9.02362H65.8956V3.91977H75.1763V0.324516H61.7913V19.6543H65.8956V12.6189H74.0902V9.02362Z" fill="white"/>
<path d="M93.3845 0.324516H77.9685V3.97616H83.6243V19.6543H87.7146V3.97616H93.3845V0.324516Z" fill="white"/>
<path d="M104.95 0.324516L96.8542 19.6543H98.8006L100.93 14.5645H110.803L112.919 19.7248H114.894L106.798 0.324516H104.95ZM101.551 12.8304L105.782 2.43937L110.014 12.8304H101.551Z" fill="white"/>
<path d="M131.48 16.0026L120.084 0.324516H118.533V19.6543H120.409V3.99026L131.791 19.6543H133.328V0.324516H131.48V16.0026Z" fill="white"/>
<path d="M150.916 1.55113C149.398 0.713465 147.685 0.2904 145.951 0.324512H138.744V19.6543H145.951C147.685 19.6884 149.398 19.2653 150.916 18.4277C152.322 17.6223 153.475 16.4406 154.245 15.0157C155.057 13.4694 155.465 11.7427 155.43 9.99645C155.466 8.24561 155.058 6.51406 154.245 4.96309C153.47 3.5413 152.319 2.36066 150.916 1.55113ZM152.623 14.0852C152.005 15.2574 151.072 16.2339 149.929 16.905C148.68 17.5999 147.267 17.9457 145.839 17.906H140.606V2.10099H145.839C147.267 2.06132 148.68 2.40711 149.929 3.10202C151.074 3.77008 152.008 4.7474 152.623 5.92183C153.283 7.19196 153.613 8.60773 153.582 10.0387C153.587 11.4495 153.243 12.8397 152.58 14.0852H152.623Z" fill="white"/>
<path d="M167.164 5.58324C167.706 5.02819 168.36 4.59552 169.083 4.31432C169.855 4.01295 170.679 3.86451 171.508 3.87725C172.418 3.8445 173.323 4.01301 174.16 4.37072C174.99 4.79036 175.72 5.38148 176.304 6.1049L179.125 3.45428C178.244 2.3413 177.1 1.46442 175.796 0.902358C174.399 0.29961 172.889 0.00160556 171.367 0.0282185C169.979 0.0104233 168.6 0.259313 167.305 0.761368C166.097 1.22977 164.996 1.93693 164.068 2.84054C163.14 3.74415 162.404 4.82564 161.903 6.02031C161.372 7.28754 161.108 8.65061 161.128 10.0244C161.109 11.3936 161.373 12.7518 161.903 14.0145C162.391 15.2084 163.121 16.2885 164.047 17.1867C164.965 18.1089 166.072 18.8208 167.291 19.2734C168.582 19.773 169.956 20.0218 171.339 20.0065C172.869 20.0278 174.387 19.7301 175.796 19.1324C177.098 18.547 178.239 17.6572 179.125 16.5382L176.304 13.8876C175.718 14.605 174.988 15.191 174.16 15.6076C173.333 16.0108 172.428 16.2274 171.508 16.2421C170.678 16.2504 169.854 16.0971 169.083 15.7909C168.357 15.515 167.702 15.0816 167.164 14.522C166.617 13.9608 166.19 13.294 165.909 12.5623C165.606 11.7607 165.458 10.9092 165.472 10.0526C165.459 9.19612 165.608 8.34487 165.909 7.543C166.193 6.81301 166.62 6.14683 167.164 5.58324Z" fill="white"/>
<path d="M200.281 6.00618C199.796 4.82096 199.082 3.74298 198.18 2.8339C197.275 1.93655 196.201 1.22733 195.02 0.747243C192.467 -0.249183 189.633 -0.249183 187.08 0.747243C185.889 1.22337 184.805 1.93284 183.892 2.8339C182.982 3.74178 182.267 4.8261 181.791 6.02028C180.794 8.57239 180.794 11.4059 181.791 13.958C182.262 15.1514 182.972 16.2357 183.878 17.1444C184.791 18.0455 185.875 18.7549 187.066 19.2311C188.338 19.7433 189.7 19.9973 191.071 19.9783C192.424 19.9963 193.767 19.7422 195.02 19.2311C196.209 18.7588 197.289 18.0488 198.194 17.1445C199.099 16.2401 199.809 15.1606 200.281 13.9721C200.797 12.7106 201.056 11.359 201.043 9.99621C201.062 8.62839 200.803 7.27098 200.281 6.00618ZM196.332 12.5058C196.057 13.2309 195.646 13.8963 195.119 14.4656C194.606 15.0092 193.987 15.4412 193.3 15.7345C192.585 16.0335 191.817 16.1822 191.043 16.1716C190.264 16.1822 189.491 16.0334 188.772 15.7345C188.085 15.4412 187.465 15.0092 186.953 14.4656C186.433 13.8889 186.026 13.2192 185.754 12.4917C185.19 10.8662 185.19 9.09803 185.754 7.47248C186.032 6.74908 186.443 6.0843 186.967 5.51272C187.48 4.96909 188.099 4.5371 188.786 4.2438C189.501 3.94485 190.269 3.79607 191.043 3.80673C191.822 3.79614 192.595 3.94488 193.314 4.2438C194.001 4.5371 194.621 4.96909 195.133 5.51272C195.647 6.08873 196.053 6.75258 196.332 7.47248C196.896 9.10287 196.896 10.8754 196.332 12.5058Z" fill="white"/>
<path d="M217.799 1.53703C216.233 0.70593 214.48 0.288562 212.707 0.324513H204.668V19.6543H212.707C214.478 19.6878 216.229 19.2757 217.799 18.4559C219.237 17.6785 220.425 16.5102 221.226 15.0862C222.083 13.5291 222.511 11.7729 222.468 9.99645C222.517 8.21045 222.088 6.44367 221.226 4.8785C220.424 3.46249 219.235 2.30365 217.799 1.53703ZM217.602 13.1546C217.147 14.0283 216.446 14.7491 215.585 15.2272C214.642 15.7365 213.581 15.9893 212.51 15.9603H208.744V4.00436H212.482C213.553 3.97544 214.613 4.22825 215.556 4.73751C216.414 5.21385 217.115 5.92898 217.573 6.79597C218.075 7.78669 218.322 8.88651 218.293 9.99645C218.325 11.0899 218.088 12.1745 217.602 13.1546Z" fill="white"/>
<path d="M230.31 16.059V11.5896H238.518V8.10718H230.31V3.91977H239.604V0.324516H226.233V19.6543H239.943V16.059H230.31Z" fill="white"/>
<path d="M3.24515 32.1036L0 39.8299H1.69312L2.34216 38.1803H5.65785L6.29277 39.8299H8.02822L4.82539 32.1036H3.24515ZM2.92063 36.8127L4.04939 33.866L5.19224 36.8127H2.92063Z" fill="white"/>
<path d="M17.83 32.583C17.195 32.2516 16.4862 32.0866 15.77 32.1036H12.5107V39.8299H15.77C16.4862 39.8469 17.195 39.6819 17.83 39.3505C18.4203 39.0503 18.9106 38.5849 19.2409 38.0111C19.5745 37.3812 19.7489 36.6794 19.7489 35.9668C19.7489 35.2541 19.5745 34.5523 19.2409 33.9224C18.9062 33.3521 18.4171 32.8878 17.83 32.583ZM17.7453 37.2357C17.5605 37.5875 17.2758 37.8769 16.927 38.0675C16.546 38.2726 16.118 38.3747 15.6853 38.3636H14.1756V33.5699H15.6853C16.118 33.5588 16.546 33.6609 16.927 33.866C17.2758 34.0566 17.5605 34.346 17.7453 34.6978C17.9438 35.0914 18.0472 35.526 18.0472 35.9668C18.0472 36.4075 17.9438 36.8421 17.7453 37.2357Z" fill="white"/>
<path d="M27.4344 37.6304L25.2616 32.1036H23.4697L26.5597 39.8299H28.1964L31.3004 32.1036H29.6496L27.4344 37.6304Z" fill="white"/>
<path d="M41.7512 33.1046C41.4022 32.7476 40.9847 32.4646 40.5237 32.2727C40.0262 32.072 39.494 31.9714 38.9576 31.9766C38.1794 31.9528 37.4129 32.1704 36.7636 32.5996C36.1142 33.0288 35.6139 33.6485 35.3315 34.3735C34.937 35.399 34.937 36.5343 35.3315 37.5599C35.5213 38.0308 35.799 38.4615 36.1498 38.8288C36.503 39.1939 36.9315 39.4777 37.4055 39.6606C38.4039 40.0734 39.5254 40.0734 40.5237 39.6606C40.9874 39.4738 41.4059 39.1902 41.7512 38.8288C42.1123 38.4669 42.3956 38.0351 42.5837 37.5599C42.9781 36.5343 42.9781 35.399 42.5837 34.3735C42.3887 33.9018 42.1063 33.4713 41.7512 33.1046ZM41.0316 36.9677C40.9283 37.2613 40.7649 37.5302 40.5519 37.7572C40.3587 37.9781 40.1174 38.1518 39.8464 38.2648C39.2755 38.4909 38.6397 38.4909 38.0687 38.2648C37.7978 38.1518 37.5564 37.9781 37.3632 37.7572C37.1502 37.5302 36.9868 37.2613 36.8835 36.9677C36.7669 36.647 36.7095 36.3078 36.7142 35.9667C36.7095 35.6255 36.7669 35.2863 36.8835 34.9656C36.9868 34.672 37.1502 34.4031 37.3632 34.1761C37.5642 33.9639 37.8035 33.7917 38.0687 33.6685C38.6397 33.4424 39.2755 33.4424 39.8464 33.6685C40.1159 33.7913 40.36 33.9635 40.566 34.1761C40.7698 34.4075 40.9277 34.6754 41.0316 34.9656C41.2574 35.6139 41.2574 36.3194 41.0316 36.9677Z" fill="white"/>
<path d="M49.6763 34.1761C49.8875 33.9633 50.1362 33.7912 50.4099 33.6685C50.7013 33.5516 51.0131 33.4941 51.3271 33.4993C51.6695 33.4952 52.0081 33.5725 52.3147 33.7249C52.6344 33.8869 52.914 34.1181 53.133 34.4017L54.1912 33.3442C53.8597 32.9014 53.4234 32.5478 52.9214 32.315C52.3927 32.0826 51.8199 31.9672 51.2424 31.9766C50.7165 31.9724 50.1946 32.0681 49.7045 32.2586C49.2356 32.4501 48.8125 32.7384 48.4629 33.1046C48.1059 33.467 47.8273 33.8989 47.6445 34.3735C47.4439 34.8805 47.3433 35.4215 47.3482 35.9667C47.3415 36.5166 47.4421 37.0625 47.6445 37.5739C47.8343 38.0449 48.112 38.4756 48.4629 38.8429C48.8118 39.1999 49.2294 39.4828 49.6904 39.6747C50.1783 39.8742 50.7011 39.9749 51.2283 39.9708C51.8115 39.9769 52.3892 39.8567 52.9214 39.6183C53.4234 39.3855 53.8597 39.0319 54.1912 38.5891L53.133 37.5317C52.9102 37.8115 52.6315 38.0419 52.3147 38.2084C52.0081 38.3608 51.6695 38.4381 51.3271 38.434C51.0131 38.4392 50.7013 38.3817 50.4099 38.2648C50.1305 38.1525 49.8798 37.979 49.6763 37.7572C49.468 37.5266 49.3053 37.2587 49.1965 36.9677C48.9707 36.3194 48.9707 35.6139 49.1965 34.9656C49.3053 34.6746 49.468 34.4067 49.6763 34.1761Z" fill="white"/>
<path d="M61.1013 32.1036L57.8984 39.8299H59.6057L60.2406 38.1803H63.5563L64.1912 39.8299H65.9408L62.7379 32.1036H61.1013ZM60.7626 36.8127L61.9055 33.866L63.0342 36.8127H60.7626Z" fill="white"/>
<path d="M69.1958 33.5558H71.4815V39.8299H73.1464V33.5558H75.4321V32.1036H69.1958V33.5558Z" fill="white"/>
<path d="M81.6508 36.6153H84.9806V35.2195H81.6508V33.5417H85.418V32.1036H80V39.8299H85.5591V38.3918H81.6508V36.6153Z" fill="white"/>
<path d="M95.1211 35.9243C94.8706 35.7544 94.5943 35.6258 94.3028 35.5436C94.0112 35.4403 93.7149 35.3557 93.4139 35.2899L92.5956 35.0643C92.3802 35.0063 92.1787 34.9056 92.003 34.7682C91.9315 34.7106 91.874 34.6375 91.8349 34.5545C91.7958 34.4714 91.7761 34.3806 91.7772 34.2888C91.7742 34.1272 91.8237 33.9688 91.9183 33.8377C92.0293 33.6924 92.1818 33.5842 92.3557 33.5275C92.6082 33.434 92.8767 33.3909 93.1458 33.4006C93.4762 33.4039 93.8043 33.4562 94.1194 33.5557C94.4751 33.6642 94.8163 33.8157 95.1352 34.0069L95.6432 32.597C95.2891 32.3634 94.8979 32.1918 94.4862 32.0894C94.0255 31.9708 93.551 31.914 93.0753 31.9202C92.4981 31.8977 91.9235 32.0087 91.3963 32.2445C90.9848 32.433 90.6369 32.7366 90.3945 33.1186C90.1727 33.4783 90.06 33.8946 90.07 34.317C90.051 34.6697 90.1291 35.0208 90.2958 35.3322C90.4432 35.5892 90.6455 35.8107 90.8883 35.9807C91.1452 36.143 91.4198 36.2754 91.7067 36.3755L92.5956 36.6293L93.4139 36.8549C93.6246 36.9246 93.8242 37.0244 94.0065 37.1509C94.0783 37.2114 94.1358 37.287 94.1748 37.3723C94.2139 37.4577 94.2335 37.5506 94.2323 37.6444C94.2305 37.801 94.1813 37.9534 94.0912 38.0815C93.9664 38.2114 93.8112 38.3083 93.6397 38.3635C93.3844 38.4446 93.1174 38.4827 92.8495 38.4762C92.4166 38.4724 91.9874 38.3961 91.5797 38.2507C91.1878 38.1098 90.8175 37.9152 90.4792 37.6726L89.9148 39.0825C90.2936 39.3764 90.7244 39.5964 91.1846 39.7311C91.7184 39.9009 92.2753 39.9865 92.8354 39.9848C93.4184 40.0046 93.998 39.8887 94.5286 39.6465C94.9434 39.4575 95.2958 39.1543 95.5444 38.7723C95.7686 38.4182 95.8861 38.0071 95.883 37.588C95.8943 37.2344 95.8115 36.8841 95.6432 36.5729C95.5173 36.3221 95.3393 36.101 95.1211 35.9243Z" fill="white"/>
<path d="M113.528 36.2768L112.258 35.8398C112.187 36.2548 112.059 36.658 111.877 37.0382L110.579 35.7129L111.059 35.4027C111.344 35.2005 111.585 34.9412 111.764 34.6414C111.911 34.3683 111.989 34.0632 111.99 33.7531C111.994 33.419 111.901 33.091 111.722 32.8085C111.549 32.5351 111.298 32.3192 111.002 32.1881C110.665 32.0398 110.299 31.9676 109.93 31.9766C109.522 31.97 109.118 32.0518 108.745 32.2163C108.43 32.3613 108.161 32.5907 107.969 32.879C107.785 33.1799 107.692 33.5275 107.701 33.88C107.698 34.0863 107.731 34.2915 107.8 34.4863C107.868 34.7086 107.973 34.9182 108.11 35.1066C108.216 35.2485 108.334 35.3806 108.463 35.5014C108.247 35.6291 108.04 35.7704 107.842 35.9244C107.533 36.1528 107.277 36.4464 107.094 36.7844C106.934 37.1037 106.852 37.4564 106.854 37.8136C106.852 38.2105 106.981 38.5971 107.221 38.9134C107.478 39.2395 107.813 39.4963 108.195 39.6606C108.639 39.8545 109.121 39.9507 109.606 39.9426C110.238 39.9508 110.862 39.7902 111.412 39.4773C111.619 39.3622 111.813 39.2251 111.99 39.0684L112.837 39.9426L113.697 38.8429L112.851 37.9969C113.178 37.4687 113.407 36.8861 113.528 36.2768ZM109.295 33.3724C109.457 33.2369 109.663 33.1666 109.874 33.1751C109.969 33.1672 110.064 33.1794 110.154 33.211C110.244 33.2426 110.327 33.2928 110.396 33.3583C110.457 33.4157 110.506 33.4858 110.537 33.5637C110.569 33.6416 110.583 33.7255 110.579 33.8095C110.576 33.9595 110.533 34.1058 110.452 34.2325C110.32 34.3971 110.163 34.5398 109.987 34.6555L109.662 34.8528L109.394 34.5709C109.295 34.4619 109.215 34.3382 109.154 34.2043C109.133 34.0972 109.133 33.9871 109.154 33.88C109.151 33.7864 109.167 33.6932 109.201 33.606C109.235 33.5187 109.286 33.4393 109.352 33.3724H109.295ZM110.791 38.3071C110.447 38.5156 110.051 38.6231 109.648 38.6173C109.416 38.6214 109.185 38.5782 108.971 38.4904C108.792 38.4278 108.639 38.3091 108.533 38.152C108.422 38.012 108.362 37.8376 108.364 37.6585C108.388 37.4598 108.471 37.2729 108.604 37.1228C108.712 36.9284 108.861 36.7599 109.041 36.6293L109.352 36.4178L111.073 38.152C111.001 38.2085 110.926 38.2603 110.847 38.3071H110.791Z" fill="white"/>
<path d="M126.94 34.1761C127.151 33.9633 127.4 33.7912 127.673 33.6685C127.966 33.5544 128.277 33.497 128.591 33.4993C128.933 33.4935 129.272 33.5709 129.578 33.7249C129.9 33.8832 130.181 34.115 130.397 34.4017L131.455 33.3442C131.126 32.9048 130.695 32.5517 130.199 32.315C129.665 32.084 129.088 31.9687 128.506 31.9766C127.98 31.9744 127.459 32.07 126.968 32.2586C126.503 32.4503 126.085 32.7387 125.741 33.1046C125.379 33.4664 125.096 33.8982 124.908 34.3735C124.717 34.8828 124.622 35.4228 124.626 35.9667C124.623 36.515 124.719 37.0594 124.908 37.574C125.102 38.0425 125.38 38.4724 125.726 38.8429C126.081 39.2002 126.503 39.4831 126.968 39.6747C127.456 39.8753 127.979 39.976 128.506 39.9708C129.089 39.9739 129.666 39.8538 130.199 39.6183C130.695 39.3816 131.126 39.0285 131.455 38.5891L130.397 37.5317C130.177 37.8145 129.897 38.0456 129.578 38.2084C129.272 38.3624 128.933 38.4398 128.591 38.434C128.277 38.4363 127.966 38.3789 127.673 38.2648C127.394 38.1525 127.143 37.979 126.94 37.7572C126.736 37.5258 126.578 37.2579 126.474 36.9677C126.248 36.3194 126.248 35.6139 126.474 34.9656C126.578 34.6754 126.736 34.4075 126.94 34.1761Z" fill="white"/>
<path d="M142.343 33.1046C141.989 32.7472 141.567 32.4643 141.102 32.2727C140.1 31.8762 138.985 31.8762 137.984 32.2727C137.518 32.4643 137.096 32.7472 136.742 33.1046C136.387 33.4713 136.105 33.9018 135.91 34.3735C135.533 35.4023 135.533 36.531 135.91 37.5599C136.104 38.0284 136.381 38.4583 136.728 38.8288C137.084 39.1908 137.511 39.4742 137.984 39.6606C138.478 39.8726 139.012 39.9783 139.55 39.9708C140.083 39.9784 140.612 39.8727 141.102 39.6606C141.57 39.474 141.993 39.1905 142.343 38.8288C142.7 38.4663 142.979 38.0344 143.162 37.5599C143.556 36.5343 143.556 35.399 143.162 34.3735C142.972 33.9025 142.694 33.4719 142.343 33.1046ZM141.61 36.9677C141.506 37.2579 141.348 37.5258 141.144 37.7572C140.943 37.9753 140.698 38.1483 140.425 38.2648C140.143 38.3802 139.84 38.4377 139.536 38.434C139.231 38.4352 138.929 38.3777 138.647 38.2648C138.376 38.1518 138.135 37.9781 137.941 37.7572C137.738 37.5258 137.58 37.2579 137.476 36.9677C137.359 36.647 137.302 36.3078 137.306 35.9667C137.302 35.6255 137.359 35.2863 137.476 34.9656C137.58 34.6754 137.738 34.4075 137.941 34.1761C138.15 33.9667 138.394 33.795 138.661 33.6685C138.938 33.5542 139.236 33.4967 139.536 33.4993C139.845 33.4967 140.152 33.5542 140.439 33.6685C140.704 33.7917 140.943 33.9639 141.144 34.1761C141.348 34.4075 141.506 34.6754 141.61 34.9656C141.836 35.6139 141.836 36.3194 141.61 36.9677Z" fill="white"/>
<path d="M153.316 36.7845L149.76 32.1036H148.392V39.8299H150.028V35.1349L153.598 39.8299H154.952V32.1036H153.316V36.7845Z" fill="white"/>
<path d="M164.895 35.9243C164.651 35.7528 164.379 35.6241 164.091 35.5436L163.202 35.2899L162.384 35.0643C162.167 35.0094 161.965 34.9084 161.791 34.7682C161.717 34.7129 161.658 34.6402 161.618 34.5567C161.579 34.4731 161.561 34.3811 161.565 34.2888C161.564 34.1294 161.608 33.9728 161.692 33.8377C161.812 33.6949 161.968 33.5876 162.144 33.5275C162.392 33.4351 162.655 33.392 162.92 33.4006C163.255 33.405 163.587 33.4572 163.907 33.5557C164.259 33.6645 164.595 33.816 164.909 34.0069L165.417 32.597C165.064 32.3609 164.673 32.1891 164.26 32.0894C163.827 31.9769 163.381 31.92 162.934 31.9202C162.357 31.8962 161.782 32.0072 161.255 32.2445C160.841 32.4118 160.486 32.698 160.235 33.0669C159.984 33.4358 159.848 33.8709 159.844 34.317C159.829 34.671 159.912 35.0222 160.084 35.3322C160.223 35.5952 160.427 35.8184 160.676 35.9807C160.932 36.1457 161.207 36.2783 161.495 36.3755C161.786 36.4695 162.083 36.5541 162.384 36.6293L163.188 36.8549C163.401 36.9187 163.601 37.0189 163.78 37.1509C163.855 37.2093 163.914 37.2845 163.953 37.3703C163.993 37.4562 164.011 37.5501 164.006 37.6444C164.012 37.8021 163.962 37.9567 163.865 38.0815C163.746 38.2118 163.596 38.309 163.428 38.3635C163.168 38.4447 162.896 38.4827 162.624 38.4762C162.191 38.4698 161.762 38.3936 161.354 38.2507C160.966 38.1099 160.6 37.9153 160.267 37.6726L159.703 39.0825C160.082 39.3764 160.512 39.5964 160.973 39.7311C161.506 39.902 162.063 39.9876 162.624 39.9848C163.207 40.0046 163.786 39.8887 164.317 39.6465C164.725 39.4534 165.072 39.1507 165.318 38.7723C165.543 38.4182 165.66 38.0071 165.657 37.588C165.673 37.2357 165.595 36.8855 165.431 36.5729C165.304 36.3186 165.121 36.0968 164.895 35.9243Z" fill="white"/>
<path d="M175.333 36.3615C175.385 36.9259 175.235 37.4904 174.909 37.9547C174.765 38.1202 174.584 38.2497 174.381 38.333C174.177 38.4162 173.957 38.4508 173.738 38.4341C173.519 38.4508 173.299 38.4162 173.096 38.333C172.893 38.2497 172.712 38.1202 172.567 37.9547C172.242 37.4904 172.092 36.9259 172.144 36.3615V32.1318H170.479V36.4602C170.423 37.4117 170.731 38.3489 171.34 39.0826C171.993 39.6731 172.843 40.0001 173.724 40.0001C174.605 40.0001 175.455 39.6731 176.109 39.0826C176.724 38.3524 177.032 37.4126 176.969 36.4602V32.1036H175.333V36.3615Z" fill="white"/>
<path d="M183.949 32.1036H182.284V39.8299H187.533V38.3777H183.949V32.1036Z" fill="white"/>
<path d="M190.676 33.5558H192.962V39.8299H194.627V33.5558H196.913V32.1036H190.676V33.5558Z" fill="white"/>
<path d="M203.385 32.1036L200.197 39.8299H201.89L202.525 38.1803H205.841L206.49 39.8299H208.225L205.022 32.1036H203.385ZM203.103 36.8127L204.246 33.866L205.389 36.8127H203.103Z" fill="white"/>
<path d="M217.575 36.7845L214.019 32.1036H212.651V39.8299H214.288V35.1349L217.857 39.8299H219.212V32.1036H217.575V36.7845Z" fill="white"/>
<path d="M223.793 33.5558H226.079V39.8299H227.744V33.5558H230.03V32.1036H223.793V33.5558Z" fill="white"/>
<path d="M239.112 35.9243C238.863 35.7528 238.586 35.6242 238.294 35.5436C238.002 35.4403 237.706 35.3557 237.405 35.2899L236.601 35.0643C236.383 35.014 236.179 34.9125 236.008 34.7682C235.934 34.7129 235.875 34.6402 235.836 34.5567C235.796 34.4731 235.778 34.3811 235.783 34.2888C235.781 34.1294 235.825 33.9728 235.91 33.8377C236.023 33.6954 236.175 33.5879 236.347 33.5275C236.6 33.435 236.868 33.392 237.137 33.4006C237.472 33.405 237.805 33.4572 238.125 33.5557C238.475 33.6671 238.811 33.8185 239.126 34.0069L239.634 32.597C239.28 32.3634 238.889 32.1918 238.477 32.0894C238.044 31.9769 237.599 31.92 237.151 31.9202C236.569 31.8966 235.99 32.0076 235.458 32.2445C235.047 32.433 234.699 32.7366 234.456 33.1186C234.241 33.4811 234.129 33.8955 234.132 34.317C234.113 34.6697 234.191 35.0208 234.357 35.3322C234.506 35.5931 234.714 35.8153 234.964 35.9807C235.215 36.1457 235.485 36.2783 235.768 36.3755L236.657 36.6293L237.476 36.8549C237.686 36.9246 237.886 37.0244 238.068 37.1509C238.142 37.2093 238.202 37.2845 238.241 37.3703C238.28 37.4562 238.298 37.5501 238.294 37.6444C238.299 37.8021 238.249 37.9567 238.153 38.0815C238.031 38.2144 237.875 38.3119 237.701 38.3635C237.463 38.4593 237.21 38.5164 236.954 38.5326C236.521 38.5275 236.092 38.4513 235.684 38.3071C235.295 38.1694 234.929 37.9746 234.597 37.729L234.033 39.1389C234.408 39.4382 234.84 39.6588 235.303 39.7875C235.842 39.9255 236.532 39.9425 236.954 39.9425C237.375 39.9425 238.117 39.8494 238.647 39.6042C239.062 39.4152 239.414 39.112 239.663 38.73C239.887 38.3759 240.004 37.9648 240.001 37.5457C240.012 37.1921 239.93 36.8418 239.761 36.5306C239.598 36.2784 239.375 36.0702 239.112 35.9243Z" fill="white"/>
</svg>
