<svg width="22" height="22" viewBox="0 0 22 22" fill="none" xmlns="http://www.w3.org/2000/svg">
<path d="M10.9995 0C8.0121 0 7.63749 0.0126736 6.46421 0.0661846C5.29339 0.119597 4.49377 0.305576 3.79407 0.577453C3.07072 0.858565 2.45728 1.23471 1.84577 1.84623C1.23423 2.45774 0.858077 3.07125 0.576997 3.79459C0.305055 4.49426 0.119142 5.29388 0.0656635 6.4647C0.0121526 7.63798 -0.000488281 8.01259 -0.000488281 11C-0.000488281 13.9874 0.0121526 14.362 0.0656635 15.5353C0.119142 16.7061 0.305055 17.5057 0.576997 18.2054C0.85811 18.9288 1.23426 19.5422 1.84577 20.1538C2.45731 20.7653 3.07072 21.1414 3.79407 21.4225C4.49377 21.6944 5.29339 21.8804 6.46421 21.9338C7.63749 21.9873 8.0121 22 10.9995 22C13.9869 22 14.3615 21.9873 15.5348 21.9338C16.7056 21.8804 17.5052 21.6944 18.2049 21.4225C18.9283 21.1414 19.5417 20.7653 20.1533 20.1538C20.7648 19.5422 21.1409 18.9288 21.4221 18.2054C21.6939 17.5057 21.8799 16.7061 21.9333 15.5353C21.9868 14.362 21.9995 13.9874 21.9995 11C21.9995 8.01259 21.9868 7.63798 21.9333 6.4647C21.8799 5.29388 21.6939 4.49426 21.4221 3.79459C21.1409 3.07125 20.7648 2.45774 20.1533 1.84623C19.5417 1.23471 18.9283 0.858565 18.2049 0.577453C17.5052 0.305576 16.7056 0.119597 15.5348 0.0661846C14.3615 0.0126736 13.9869 0 10.9995 0ZM10.9995 1.98197C13.9366 1.98197 14.2845 1.9932 15.4445 2.04612C16.517 2.09502 17.0994 2.27421 17.487 2.42486C18.0005 2.62443 18.3669 2.86277 18.7518 3.24769C19.1367 3.63262 19.3751 3.99907 19.5747 4.5125C19.7253 4.90011 19.9045 5.48258 19.9534 6.55506C20.0063 7.71497 20.0175 8.06289 20.0175 11C20.0175 13.9371 20.0063 14.285 19.9534 15.4449C19.9045 16.5175 19.7253 17.0999 19.5747 17.4875C19.3751 18.001 19.1367 18.3674 18.7518 18.7523C18.3669 19.1372 18.0004 19.3756 17.487 19.5751C17.0994 19.7258 16.5169 19.905 15.4445 19.9539C14.2847 20.0068 13.9368 20.018 10.9995 20.018C8.06217 20.018 7.71435 20.0068 6.55457 19.9538C5.48206 19.905 4.89963 19.7258 4.51205 19.5751C3.99855 19.3756 3.63213 19.1372 3.24724 18.7523C2.86231 18.3674 2.62394 18.0009 2.42437 17.4875C2.27373 17.0999 2.09456 16.5174 2.04563 15.4449C1.99271 14.285 1.98148 13.9371 1.98148 11C1.98148 8.06289 1.99271 7.71497 2.04563 6.55506C2.09456 5.48254 2.27373 4.90011 2.42437 4.51254C2.62394 3.99904 2.86231 3.63262 3.24721 3.24773C3.63213 2.86277 3.99859 2.62443 4.51202 2.42486C4.89963 2.27421 5.48209 2.09502 6.55457 2.04612C7.71448 1.9932 8.06244 1.98197 10.9995 1.98197Z" fill="#CCB4CC"/>
<path d="M10.9995 14.6667C8.97445 14.6667 7.33283 13.0251 7.33283 11C7.33283 8.97493 8.97445 7.33332 10.9995 7.33332C13.0246 7.33332 14.6662 8.97493 14.6662 11C14.6662 13.0251 13.0246 14.6667 10.9995 14.6667ZM10.9995 5.35135C7.87983 5.35135 5.35087 7.88032 5.35087 11C5.35087 14.1197 7.87983 16.6486 10.9995 16.6486C14.1192 16.6486 16.6482 14.1197 16.6482 11C16.6482 7.88032 14.1192 5.35135 10.9995 5.35135ZM18.1914 5.12817C18.1914 5.85722 17.6003 6.44816 16.8713 6.44816C16.1424 6.44816 15.5513 5.85722 15.5513 5.12817C15.5513 4.39916 16.1424 3.80815 16.8713 3.80815C17.6003 3.80815 18.1914 4.39916 18.1914 5.12817Z" fill="#CCB4CC"/>
</svg>
