<svg width="96" height="48" viewBox="0 0 96 48" fill="none" xmlns="http://www.w3.org/2000/svg">
<path d="M30.0006 27.8568C29.9968 33.1443 27.8885 38.214 24.139 41.9516C20.3895 45.6891 15.3057 47.7887 10.005 47.7887H0.395207C0.292816 47.7887 0.194398 47.7491 0.120692 47.6782C0.0469865 47.6073 0.00374959 47.5107 9.27828e-05 47.4086V40.2297C9.27828e-05 40.1252 0.0417208 40.025 0.115819 39.951C0.189918 39.8771 0.290417 39.8356 0.395207 39.8356H10.005C13.0855 39.6865 15.9904 38.3609 18.1177 36.1334C20.245 33.9059 21.4316 30.9473 21.4316 27.8709C21.4316 24.7944 20.245 21.8358 18.1177 19.6083C15.9904 17.3808 13.0855 16.0552 10.005 15.9061H0.395207C0.341533 15.9082 0.288013 15.899 0.238159 15.8791C0.188305 15.8591 0.143244 15.8289 0.105932 15.7903C0.0686211 15.7518 0.0399029 15.7058 0.0216623 15.6554C0.00342173 15.605 -0.00392889 15.5513 9.27828e-05 15.4979V8.37533C0.00361011 8.27192 0.0463672 8.1737 0.119717 8.10053C0.193067 8.02736 0.291535 7.98471 0.395207 7.9812H10.005C15.2948 7.98488 20.3679 10.0778 24.115 13.8024C27.8621 17.527 29.9782 22.5801 30.0006 27.8568Z" fill="white"/>
<path d="M73.9992 27.9272C73.9974 29.4996 74.3063 31.0569 74.9082 32.5102C75.5102 33.9634 76.3934 35.2841 77.5074 36.3966C78.6213 37.5091 79.9442 38.3917 81.4004 38.9939C82.8566 39.596 84.4174 39.906 85.9938 39.906H95.6035C95.7083 39.906 95.8088 39.9475 95.8829 40.0214C95.957 40.0953 95.9986 40.1956 95.9986 40.3001V47.479C96.0005 47.5319 95.9917 47.5847 95.9727 47.6341C95.9537 47.6836 95.9249 47.7287 95.888 47.7668C95.8512 47.8049 95.807 47.8352 95.7581 47.8559C95.7092 47.8766 95.6566 47.8872 95.6035 47.8872H85.9938C80.7807 47.7491 75.8277 45.5863 72.1895 41.8594C68.5513 38.1326 66.5154 33.1361 66.5154 27.9342C66.5154 22.7322 68.5513 17.7358 72.1895 14.009C75.8277 10.2821 80.7807 8.11933 85.9938 7.9812H95.6035C95.6575 7.9881 95.7095 8.00567 95.7566 8.03286C95.8037 8.06006 95.8448 8.09634 95.8777 8.13959C95.9105 8.18284 95.9344 8.23219 95.9479 8.28475C95.9614 8.33732 95.9643 8.39204 95.9563 8.44572V15.6386C95.9583 15.6909 95.9494 15.7431 95.9303 15.7918C95.9111 15.8405 95.8821 15.8847 95.845 15.9217C95.8079 15.9587 95.7635 15.9877 95.7147 16.0068C95.6659 16.0259 95.6136 16.0348 95.5612 16.0328H85.9938C82.8248 16.0327 79.7846 17.2836 77.5372 19.5123C75.2898 21.7409 74.0179 24.7661 73.9992 27.9272Z" fill="white"/>
<path d="M55.6689 11.8662L62.5551 7.89673C62.6332 7.85472 62.6933 7.78596 62.7244 7.70316C62.7555 7.62035 62.7556 7.52911 62.7245 7.44629L60.6783 0.351891C60.6659 0.289496 60.6391 0.230854 60.6 0.180644C60.5608 0.130433 60.5104 0.0900434 60.4529 0.062696C60.3953 0.0353485 60.3321 0.0218004 60.2684 0.0231322C60.2046 0.024464 60.142 0.040639 60.0857 0.0703668L47.9782 7.10846L35.9131 0.0703668C35.8556 0.03143 35.789 0.00776664 35.7197 0.00161062C35.6505 -0.0045454 35.5808 0.00700899 35.5172 0.035183C35.4537 0.0633571 35.3984 0.107221 35.3565 0.162635C35.3147 0.218049 35.2877 0.283183 35.2781 0.351891L33.1896 7.38998C33.1726 7.47775 33.1839 7.56865 33.2219 7.64959C33.26 7.73054 33.3228 7.79736 33.4013 7.84042L40.2735 11.8099L30.0146 47.4508C29.9966 47.511 29.9932 47.5746 30.0048 47.6363C30.0164 47.6981 30.0426 47.7562 30.0813 47.8057C30.1199 47.8553 30.1699 47.895 30.2271 47.9214C30.2842 47.9478 30.3468 47.9602 30.4097 47.9576H37.8887C37.9747 47.9605 38.0593 47.9342 38.1284 47.8831C38.1976 47.832 38.2474 47.759 38.2697 47.676L47.9782 14.1466L57.7009 47.7183C57.7231 47.8012 57.7729 47.8742 57.8421 47.9253C57.9113 47.9765 57.9958 48.0027 58.0819 47.9998H65.5749C65.6367 48.0001 65.6976 47.9861 65.7529 47.9587C65.8083 47.9313 65.8563 47.8914 65.8934 47.8421C65.9304 47.7929 65.9554 47.7356 65.9663 47.675C65.9771 47.6144 65.9736 47.5521 65.9559 47.493L55.6689 11.8662Z" fill="white"/>
</svg>
