<svg width="200" height="200" viewBox="0 0 200 200" fill="none" xmlns="http://www.w3.org/2000/svg">
<g clip-path="url(#clip0_142_14340)">
<path d="M11.3973 131.611L10.046 127.691L8.36192 128.259L9.71313 132.199L7.42194 132.983L5.91406 128.632L4.24951 129.2L6.44279 135.609L16.0776 132.277L15.3726 130.239L11.3973 131.611Z" fill="white"/>
<path d="M8.36158 125.437C9.33438 125.26 10.245 124.835 11.0053 124.202C11.6347 123.689 12.1092 123.01 12.3761 122.242C12.612 121.426 12.6388 120.564 12.454 119.735C12.2691 118.906 11.8787 118.137 11.3186 117.499C10.7843 116.8 10.0447 116.286 9.20364 116.029C8.25191 115.793 7.2571 115.793 6.30538 116.029C5.33443 116.212 4.42517 116.636 3.66169 117.264C3.01714 117.804 2.54132 118.519 2.29089 119.322C2.07426 120.144 2.07426 121.008 2.29089 121.831C2.46486 122.665 2.84911 123.441 3.40711 124.085C3.95382 124.718 4.66579 125.186 5.46331 125.437C6.41504 125.673 7.40985 125.673 8.36158 125.437ZM4.09251 121.517C3.9443 121.058 3.9443 120.565 4.09251 120.106C4.2679 119.643 4.58266 119.246 4.99332 118.969C5.50733 118.62 6.08707 118.38 6.69703 118.264C7.30437 118.139 7.93049 118.139 8.53782 118.264C9.02612 118.343 9.48149 118.56 9.84987 118.891C10.1879 119.236 10.4191 119.672 10.5157 120.145C10.654 120.605 10.654 121.096 10.5157 121.556C10.3338 122.016 10.0205 122.411 9.61488 122.693C9.09176 123.038 8.5064 123.278 7.89159 123.399C7.28425 123.523 6.65813 123.523 6.0508 123.399C5.56025 123.319 5.10721 123.087 4.75578 122.735C4.40435 122.383 4.17232 121.93 4.09251 121.439V121.517Z" fill="white"/>
<path d="M10.7909 110.718L7.2072 111.071L7.05054 109.503L10.4384 107.229L10.2034 104.857L6.48263 107.405C6.20551 106.898 5.77311 106.493 5.24891 106.249C4.68902 105.934 4.04879 105.791 3.40812 105.837C2.79779 105.877 2.2093 106.08 1.70441 106.425C1.23414 106.769 0.879081 107.248 0.686104 107.797C0.465392 108.426 0.391696 109.096 0.470692 109.757L0.881933 113.677L11.0063 112.658L10.7909 110.718ZM2.27232 110.11C2.19873 109.768 2.19873 109.414 2.27232 109.071C2.3395 108.803 2.49898 108.567 2.72272 108.405C2.97436 108.238 3.26392 108.137 3.56479 108.111C3.85718 108.085 4.15165 108.125 4.42643 108.229C4.66828 108.35 4.86162 108.551 4.97475 108.797C5.1399 109.105 5.2336 109.447 5.24891 109.797L5.40558 111.247L2.33107 111.561L2.27232 110.11Z" fill="white"/>
<path d="M10.4964 92.549C10.5638 91.8878 10.4904 91.2198 10.281 90.589C10.1006 90.0913 9.78114 89.6559 9.36062 89.3347C8.94907 89.0332 8.45969 88.8563 7.95065 88.8251C7.52508 88.7749 7.09384 88.8393 6.70141 89.0116C6.30899 89.1838 5.96958 89.4577 5.7182 89.8051C5.50469 90.1303 5.36437 90.4981 5.30696 90.883C5.26759 90.5362 5.15404 90.202 4.97405 89.9031C4.81454 89.6094 4.57743 89.3653 4.28865 89.1975C3.98225 89.0061 3.63126 88.898 3.27034 88.8839C2.79027 88.8418 2.30813 88.9369 1.87996 89.1583C1.41771 89.3666 1.03364 89.7167 0.783315 90.1579C0.486405 90.7693 0.32603 91.4381 0.313326 92.1178L0 96.0377L10.1635 96.8021L10.4964 92.549ZM4.40615 94.2934L1.95829 94.0778V92.4706C1.95879 92.0693 2.11298 91.6835 2.38911 91.3926C2.50627 91.2695 2.65039 91.1754 2.81011 91.1176C2.96983 91.0597 3.14079 91.0398 3.30951 91.0594C3.5533 91.0692 3.78717 91.1587 3.97532 91.3142C4.15946 91.4726 4.30087 91.6748 4.38656 91.9022C4.43932 92.1609 4.43932 92.4275 4.38656 92.6862L4.40615 94.2934ZM8.5773 94.6069L5.87486 94.3914L6.01194 92.5882C6.01912 92.2833 6.10697 91.9857 6.26652 91.7258C6.38561 91.4887 6.57789 91.2962 6.81484 91.177C7.04148 91.0518 7.30264 91.0037 7.55899 91.0398C7.73562 91.0413 7.90937 91.0847 8.06597 91.1665C8.22257 91.2483 8.35755 91.3661 8.4598 91.5102C8.69376 91.9125 8.77706 92.3849 8.6948 92.843L8.5773 94.6069Z" fill="white"/>
<path d="M12.2587 80.4561L10.5158 80.1425L9.65417 84.8072L7.26506 84.376L8.04837 80.0837L6.3055 79.7505L5.52218 84.0428L3.13307 83.6116L3.97513 78.9861L2.23226 78.6529L0.998535 85.4148L11.025 87.2571L12.2587 80.4561Z" fill="white"/>
<path d="M5.44383 73.3219L13.512 75.713L14.119 73.655L6.0509 71.2835L6.93213 68.2848L5.22842 67.7948L2.85889 75.8306L4.5626 76.3206L5.44383 73.3219Z" fill="white"/>
<path d="M10.9469 58.3086L9.32151 57.6226L6.09033 65.3448L7.71571 66.0308L8.92985 63.1693L16.6847 66.4032L17.5071 64.4433L9.75233 61.1897L10.9469 58.3086Z" fill="white"/>
<path d="M19.0539 57.1522L16.9194 55.9763L19.0148 52.1544L17.4481 51.292L15.3528 55.1139L13.2378 53.9575L15.4899 49.822L13.9428 48.9596L10.6333 54.9767L19.5631 59.8962L22.8922 53.8595L21.3256 52.9971L19.0539 57.1522Z" fill="white"/>
<path d="M24.1067 44.8437C24.2224 44.2753 24.1538 43.6848 23.9109 43.1582C23.65 42.6084 23.2436 42.1407 22.7359 41.8058C22.2402 41.434 21.6496 41.2098 21.0322 41.159C20.4543 41.1023 19.873 41.2255 19.3677 41.5118C18.784 41.8578 18.2881 42.3341 17.9185 42.9034L15.6665 46.2157L24.0284 52.0956L25.2621 50.312L22.3051 48.2541L23.1863 46.9605L27.2596 47.4309L28.6108 45.4709L24.1263 45.0005C24.1149 44.949 24.1083 44.8965 24.1067 44.8437ZM18.2319 45.4513L19.0739 44.2557C19.258 43.9573 19.5053 43.703 19.7985 43.511C20.0283 43.3551 20.3058 43.2856 20.5818 43.315C20.88 43.3398 21.1652 43.4485 21.4043 43.6286C21.6502 43.7927 21.8519 44.0148 21.9918 44.2753C22.0715 44.5306 22.0715 44.8041 21.9918 45.0593C21.9069 45.3967 21.7609 45.7155 21.5609 46.0001L20.7189 47.2153L18.2319 45.4513Z" fill="white"/>
<path d="M32.9773 28.1057L31.724 26.871L25.8296 32.8292L27.1025 34.0836L29.2958 31.8492L35.2881 37.7683L36.7764 36.2591L30.7841 30.3401L32.9773 28.1057Z" fill="white"/>
<path d="M44.0613 23.2254C43.4733 22.4325 42.6909 21.8047 41.7897 21.4027C41.02 21.068 40.171 20.9592 39.3418 21.0891C38.5049 21.2361 37.7214 21.6011 37.0702 22.1475C36.4039 22.6565 35.8837 23.3326 35.5624 24.1074C35.255 24.8928 35.1802 25.7502 35.3469 26.577C35.5626 27.537 36.0059 28.4311 36.6394 29.1837C37.2342 29.9653 38.0152 30.5852 38.911 30.9869C39.6791 31.3272 40.5279 31.4427 41.3589 31.32C42.1979 31.1638 42.9847 30.8006 43.648 30.2633C44.3114 29.726 44.8304 29.0316 45.158 28.2429C45.4593 27.4626 45.5274 26.6113 45.3538 25.793C45.1483 24.841 44.7034 23.9573 44.0613 23.2254ZM43.278 27.6549C43.1151 28.1086 42.8305 28.5087 42.4555 28.8113C42.0865 29.1353 41.6246 29.3344 41.1358 29.3802C40.647 29.4259 40.1562 29.316 39.7335 29.0661C39.1925 28.7596 38.7194 28.3462 38.3431 27.8509C37.941 27.3718 37.6352 26.8194 37.4423 26.2242C37.3047 25.7572 37.3047 25.2604 37.4423 24.7934C37.5861 24.33 37.8744 23.9248 38.2648 23.637C38.6286 23.3216 39.0791 23.1235 39.5573 23.0686C40.048 23.0301 40.539 23.1393 40.9672 23.3822C42.0458 24.0159 42.8595 25.0182 43.2584 26.2046C43.4111 26.675 43.4179 27.1806 43.278 27.6549Z" fill="white"/>
<path d="M51.5812 15.1504C50.8663 14.7256 50.0421 14.5211 49.2117 14.5624C48.2945 14.6427 47.4123 14.9527 46.6463 15.464L43.5522 17.424L48.9571 26.0478L52.0316 24.0878C52.835 23.605 53.5075 22.9319 53.9899 22.1279C54.3988 21.4008 54.5828 20.5686 54.5187 19.7367C54.4126 18.7942 54.0909 17.8888 53.5787 17.0908C53.0778 16.2932 52.3927 15.6277 51.5812 15.1504ZM52.1295 21.5595C51.8397 22.0313 51.4355 22.4223 50.9546 22.6963L49.7796 23.4214L46.3526 17.816L47.508 17.0908C47.9683 16.7753 48.5001 16.5799 49.055 16.5224C49.5477 16.48 50.0397 16.6118 50.4454 16.8948C50.9642 17.2622 51.3983 17.7368 51.7183 18.2864C52.07 18.8186 52.3037 19.4201 52.4037 20.0503C52.4617 20.3074 52.4674 20.5736 52.4203 20.8329C52.3732 21.0922 52.2743 21.3393 52.1295 21.5595Z" fill="white"/>
<path d="M55.8701 10.2898L57.0451 21.0107L59.1405 20.0111L58.7488 17.6396L62.0779 16.052L63.762 17.8356L65.8378 16.836L58.3767 9.09418L55.8701 10.2898ZM58.5921 15.8364L58.083 11.9165L60.8637 14.8564L58.5921 15.8364Z" fill="white"/>
<path d="M69.3625 4.80189L68.5988 9.72137L68.5205 9.76057L64.8781 6.36985L62.6064 7.15383L68.2659 12.1713L69.4605 15.5816L71.4775 14.876L70.3025 11.4657L71.6537 4.01791L69.3625 4.80189Z" fill="white"/>
<path d="M83.3055 1.45037L81.3472 12.0537L83.6579 11.7597L84.0496 9.32938L87.692 8.7806L88.7887 10.9757L91.0603 10.5838L86.0471 1.01918L83.3055 1.45037ZM84.3433 7.54582L84.9896 3.62592L86.8108 7.25183L84.3433 7.54582Z" fill="white"/>
<path d="M98.7761 0.0783981L98.9915 6.48744H98.8936L94.2916 0.215595L92.4116 0.274393L92.7249 10.4662L94.8791 10.4074L94.6832 3.9787H94.742L99.3831 10.2506L101.244 10.1918L100.93 0L98.7761 0.0783981Z" fill="white"/>
<path d="M110.526 1.23477C109.75 0.740889 108.859 0.457229 107.941 0.411592L104.318 0.0979996L103.437 10.2506L107.04 10.5641C107.964 10.6715 108.901 10.5434 109.762 10.1918C110.56 9.86241 111.242 9.30295 111.721 8.5846C112.168 7.75125 112.416 6.8254 112.445 5.87986C112.564 4.94197 112.435 3.98937 112.073 3.11633C111.759 2.34724 111.22 1.6913 110.526 1.23477ZM110.311 5.72307C110.266 6.35658 110.1 6.97556 109.821 7.54582C109.579 7.97737 109.2 8.31546 108.744 8.5062C108.229 8.7142 107.67 8.78837 107.119 8.72179L105.748 8.6042L106.296 2.11675L107.667 2.23435C108.224 2.26935 108.767 2.43016 109.253 2.70474C109.664 2.97605 109.974 3.3757 110.134 3.84151C110.322 4.44987 110.382 5.09042 110.311 5.72307Z" fill="white"/>
<path d="M124.077 5.31147C124.255 5.16724 124.475 5.08471 124.704 5.07628C125 5.01091 125.308 5.01091 125.604 5.07628C126.054 5.20451 126.443 5.48955 126.701 5.87986C126.82 6.0221 126.905 6.18966 126.949 6.36971C126.993 6.54975 126.995 6.73752 126.956 6.91863L128.914 7.44782C129.09 6.90654 129.09 6.32314 128.914 5.78186C128.725 5.23509 128.385 4.75279 127.935 4.39029C127.395 3.97357 126.775 3.67327 126.114 3.50831C125.478 3.32198 124.812 3.2686 124.155 3.35152C123.562 3.43252 123.002 3.6692 122.53 4.0375C122.092 4.40866 121.783 4.90978 121.649 5.46827C121.54 5.79186 121.504 6.13576 121.545 6.47485C121.585 6.81394 121.701 7.13966 121.884 7.42822C122.331 8.04294 122.914 8.546 123.587 8.89819L124.606 9.46657C124.896 9.61561 125.172 9.79286 125.428 9.99576C125.616 10.1421 125.775 10.3215 125.898 10.5249C125.968 10.7281 125.968 10.949 125.898 11.1521C125.836 11.3807 125.698 11.5813 125.506 11.7205C125.294 11.8718 125.043 11.9601 124.782 11.9753C124.465 12.0392 124.139 12.0392 123.822 11.9753C123.495 11.8901 123.184 11.751 122.902 11.5637C122.662 11.3925 122.478 11.1538 122.373 10.8777C122.284 10.5839 122.284 10.27 122.373 9.97616L120.415 9.42737C120.229 10.0674 120.229 10.7473 120.415 11.3873C120.628 11.9746 121.009 12.486 121.512 12.8573C122.099 13.2871 122.764 13.5999 123.47 13.7785C124.168 13.9862 124.901 14.0463 125.624 13.9549C126.21 13.9061 126.765 13.6728 127.21 13.2885C127.648 12.9173 127.957 12.4162 128.091 11.8577C128.177 11.477 128.177 11.082 128.091 10.7013C128.028 10.3454 127.895 10.0057 127.7 9.70177C127.487 9.37937 127.222 9.09457 126.916 8.85899C126.58 8.47518 126.198 8.13303 125.781 7.83981L124.958 7.38902C124.766 7.29405 124.583 7.18257 124.41 7.05583C124.247 6.94753 124.096 6.82274 123.959 6.68344C123.848 6.56058 123.767 6.41271 123.724 6.25225C123.676 6.09252 123.676 5.92199 123.724 5.76226C123.794 5.58024 123.917 5.42327 124.077 5.31147Z" fill="white"/>
<path d="M138.451 9.68217L139.097 8.01621L132.693 5.54667L129.012 15.0524L135.454 17.5416L136.081 15.8952L131.675 14.1705L132.556 11.9165L136.61 13.4845L137.256 11.8185L133.183 10.2506L134.064 7.97701L138.451 9.68217Z" fill="white"/>
<path d="M144.502 18.9724C144.301 19.1055 144.074 19.1926 143.836 19.2271C143.589 19.2664 143.338 19.2664 143.092 19.2271C142.826 19.1708 142.569 19.0785 142.328 18.9528C141.902 18.7396 141.548 18.4056 141.31 17.9924C141.062 17.5586 140.953 17.0593 140.996 16.5616C141.059 15.9428 141.246 15.343 141.545 14.7976C141.817 14.2395 142.204 13.7453 142.68 13.3473C143.045 13.0178 143.504 12.812 143.993 12.7593C144.482 12.7045 144.976 12.8075 145.402 13.0533C145.651 13.1777 145.876 13.3434 146.068 13.5433C146.251 13.7222 146.398 13.9352 146.499 14.1705C146.593 14.3946 146.646 14.6334 146.656 14.876C146.658 15.1436 146.612 15.4092 146.519 15.66L148.477 16.6792C148.695 16.1638 148.815 15.612 148.829 15.0524C148.833 14.5455 148.726 14.0439 148.516 13.5825C148.31 13.113 148.025 12.6821 147.674 12.3085C147.277 11.9143 146.821 11.5838 146.323 11.3285C145.578 10.9264 144.74 10.7302 143.895 10.7601C143.057 10.7974 142.247 11.0765 141.564 11.5637C140.748 12.1091 140.082 12.8503 139.626 13.7197C139.15 14.579 138.888 15.5403 138.862 16.5224C138.863 17.3696 139.105 18.1989 139.559 18.9137C140.013 19.6286 140.661 20.1995 141.427 20.5599C141.949 20.8506 142.52 21.0433 143.111 21.1283C143.635 21.1857 144.165 21.1525 144.678 21.0303C145.153 20.9045 145.603 20.6991 146.01 20.4227C146.404 20.1491 146.743 19.8033 147.008 19.4035L145.05 18.3844C144.906 18.6136 144.72 18.8132 144.502 18.9724Z" fill="white"/>
<path d="M159.835 19.9915L158.073 18.7568L154.411 24.0682C154.219 24.3706 153.948 24.6147 153.628 24.7738C153.319 24.9293 152.972 24.9906 152.629 24.9502C152.248 24.9168 151.882 24.7814 151.571 24.5582C151.24 24.3528 150.969 24.0617 150.788 23.7154C150.626 23.4088 150.558 23.0611 150.592 22.7159C150.637 22.3582 150.764 22.0159 150.964 21.7163L154.705 16.4244L152.923 15.1896L149.182 20.6579C148.774 21.2321 148.542 21.9135 148.517 22.6179C148.492 23.3018 148.655 23.9794 148.987 24.5778C149.388 25.2365 149.93 25.7987 150.573 26.2242C151.19 26.667 151.9 26.962 152.649 27.0866C153.317 27.1839 153.999 27.0837 154.612 26.7982C155.224 26.5127 155.74 26.0543 156.095 25.4794L159.835 19.9915Z" fill="white"/>
<path d="M164.594 30.6145C165.172 30.4143 165.681 30.0541 166.063 29.5757C166.481 29.1242 166.771 28.5695 166.905 27.9685C167.006 27.3932 166.938 26.8008 166.709 26.2634C166.432 25.6421 166.016 25.0924 165.495 24.6562L162.538 22.0299L155.86 29.7325L157.485 31.1437L159.855 28.4193L161.03 29.4581L160.129 33.378L161.931 34.9264L162.89 30.5165C163.435 30.7195 164.029 30.7537 164.594 30.6145ZM162.929 24.7346L164.026 25.695C164.298 25.9167 164.524 26.1897 164.692 26.4986C164.806 26.7501 164.846 27.0286 164.809 27.3021C164.74 27.5939 164.599 27.8635 164.398 28.0861C164.211 28.3142 163.968 28.4897 163.693 28.5957C163.433 28.6838 163.151 28.6838 162.89 28.5957C162.565 28.4698 162.266 28.2836 162.009 28.0469L160.912 27.0865L162.929 24.7346Z" fill="white"/>
<path d="M173.876 35.4752L175.169 34.26L170.469 29.2425L163.027 36.2199L167.747 41.257L169.039 40.0418L165.808 36.5727L167.59 34.9068L170.567 38.1015L171.859 36.8863L168.883 33.6916L170.645 32.0452L173.876 35.4752Z" fill="white"/>
<path d="M184.236 49.7044L185.704 48.7244L181.122 41.7078L179.634 42.6878L181.337 45.2945L174.307 49.9396L175.482 51.7036L182.512 47.0781L184.236 49.7044Z" fill="white"/>
<path d="M186.684 61.5817C187.574 61.162 188.348 60.5293 188.936 59.7394C189.423 59.0487 189.702 58.2322 189.739 57.3874C189.797 56.5184 189.614 55.6502 189.21 54.8787C188.85 54.0816 188.273 53.4022 187.545 52.9187C186.851 52.4494 186.033 52.197 185.195 52.1936C184.209 52.1946 183.24 52.444 182.375 52.9187C181.477 53.3636 180.713 54.0402 180.163 54.8787C179.667 55.5519 179.381 56.3564 179.34 57.1914C179.303 58.0485 179.492 58.9003 179.888 59.661C180.25 60.4507 180.819 61.1279 181.533 61.6209C182.236 62.0886 183.059 62.3407 183.903 62.3461C184.877 62.317 185.831 62.0549 186.684 61.5817ZM181.553 58.7986C181.324 58.3728 181.229 57.8879 181.279 57.407C181.344 56.9181 181.556 56.4604 181.886 56.0939C182.294 55.6245 182.793 55.2442 183.355 54.9767C183.91 54.6885 184.514 54.5089 185.137 54.4475C185.626 54.3993 186.118 54.5019 186.547 54.7415C186.956 54.9932 187.288 55.3534 187.506 55.7824C187.724 56.2113 187.819 56.6922 187.78 57.1718C187.715 57.6608 187.503 58.1184 187.173 58.485C186.764 58.9614 186.256 59.3427 185.685 59.6022C185.145 59.9102 184.542 60.0911 183.922 60.1314C183.434 60.1796 182.942 60.077 182.512 59.8374C182.098 59.5922 181.765 59.2311 181.553 58.7986Z" fill="white"/>
<path d="M185.038 71.5971L192.108 71.9499L192.147 72.0283L185.861 74.1842L186.546 76.1638L196.181 72.8515L195.319 70.3427L187.936 69.9115L187.897 69.7939L193.459 64.9136L192.597 62.4049L182.962 65.6976L183.648 67.6968L189.934 65.5212L189.973 65.5996L184.568 70.2447L185.038 71.5971Z" fill="white"/>
<path d="M192.01 77.1242C191.042 77.2876 190.128 77.6845 189.347 78.2805C188.711 78.8331 188.243 79.5528 187.995 80.3581C187.733 81.1749 187.686 82.0459 187.858 82.8864C188.01 83.7206 188.382 84.4989 188.935 85.1404C189.481 85.7839 190.202 86.254 191.011 86.4927C191.964 86.7224 192.957 86.7224 193.91 86.4927C194.882 86.3306 195.798 85.9262 196.573 85.3168C197.223 84.8101 197.718 84.1311 198.002 83.3568C198.265 82.5467 198.312 81.682 198.139 80.8481C197.988 80.0082 197.616 79.2236 197.062 78.5745C196.516 77.9364 195.794 77.473 194.987 77.2418C194.022 76.94 192.995 76.8995 192.01 77.1242ZM196.181 81.1813C196.298 81.6502 196.264 82.1441 196.083 82.5924C195.891 83.0466 195.562 83.43 195.143 83.69C194.622 84.0299 194.035 84.2569 193.42 84.3564C192.775 84.4964 192.107 84.4964 191.462 84.3564C190.984 84.2561 190.543 84.0255 190.189 83.69C189.863 83.334 189.645 82.8919 189.562 82.416C189.46 81.9444 189.501 81.4532 189.68 81.0049C189.865 80.5521 190.187 80.1684 190.6 79.9073C191.122 79.5673 191.709 79.3404 192.323 79.2409C192.937 79.1147 193.57 79.1147 194.184 79.2409C194.664 79.3329 195.107 79.5647 195.457 79.9073C195.818 80.251 196.071 80.6943 196.181 81.1813Z" fill="white"/>
<path d="M189.21 91.667L192.813 91.3926L192.931 92.9606L189.465 95.1557L189.641 97.5469L193.44 95.0773C193.44 95.0773 193.44 95.0773 193.44 95.1753C193.714 95.6831 194.138 96.0938 194.654 96.3513C195.221 96.5996 195.84 96.701 196.457 96.6462C197.073 96.5914 197.665 96.3821 198.179 96.0377C198.668 95.7169 199.045 95.2509 199.256 94.7049C199.482 94.0777 199.568 93.409 199.511 92.745L199.197 88.8251L189.034 89.5895L189.21 91.667ZM197.728 92.4902C197.756 92.8408 197.716 93.1933 197.611 93.529C197.524 93.7876 197.36 94.0134 197.141 94.1757C196.885 94.3304 196.597 94.4242 196.299 94.4501C196.005 94.48 195.708 94.4328 195.437 94.3129C195.2 94.1853 195.008 93.9866 194.889 93.7446C194.741 93.4249 194.66 93.0778 194.654 92.7254L194.536 91.275L197.611 91.0398L197.728 92.4902Z" fill="white"/>
<path d="M189.641 99.1736V101.33H193.244V102.917L189.582 104.72V107.111L193.616 105.053C193.616 105.053 193.616 105.053 193.616 105.171C193.846 105.695 194.22 106.144 194.693 106.465C195.217 106.787 195.821 106.957 196.436 106.955C197.046 106.989 197.654 106.861 198.198 106.582C198.706 106.302 199.122 105.88 199.393 105.367C199.704 104.761 199.866 104.089 199.863 103.407L200 99.3892L189.641 99.1736ZM197.963 103.094C197.966 103.445 197.892 103.792 197.748 104.113C197.637 104.37 197.444 104.584 197.2 104.72C196.93 104.844 196.635 104.904 196.338 104.897C196.048 104.89 195.765 104.809 195.516 104.661C195.282 104.518 195.108 104.296 195.026 104.034C194.904 103.709 194.857 103.361 194.889 103.015V101.545H197.963V103.094Z" fill="white"/>
<path d="M197.062 110.443C196.252 109.882 195.318 109.525 194.34 109.405C193.371 109.232 192.375 109.307 191.442 109.62C190.671 109.899 189.993 110.388 189.484 111.031C188.968 111.713 188.638 112.516 188.524 113.364C188.379 114.201 188.467 115.062 188.779 115.853C189.08 116.639 189.604 117.32 190.287 117.813C191.103 118.352 192.027 118.706 192.994 118.852C193.961 118.997 194.949 118.93 195.887 118.656C196.663 118.375 197.342 117.879 197.846 117.225C198.371 116.554 198.709 115.756 198.825 114.912C198.952 114.068 198.865 113.205 198.57 112.403C198.269 111.617 197.745 110.936 197.062 110.443ZM196.925 114.618C196.875 115.098 196.677 115.55 196.357 115.912C196.023 116.275 195.586 116.528 195.104 116.637C193.878 116.897 192.6 116.709 191.501 116.108C191.081 115.872 190.744 115.511 190.537 115.076C190.331 114.641 190.263 114.152 190.345 113.677C190.41 113.198 190.615 112.748 190.933 112.384C191.268 112.031 191.695 111.779 192.167 111.659C192.811 111.514 193.48 111.514 194.125 111.659C194.742 111.725 195.337 111.926 195.868 112.247C196.298 112.486 196.642 112.857 196.847 113.305C196.997 113.726 197.024 114.182 196.925 114.618Z" fill="white"/>
<path d="M186.39 123.928L192.225 127.711L192.206 127.769L185.254 127.73L184.667 129.749L193.596 135.472L194.262 133.198L187.937 129.553L187.976 129.475L195.3 129.729L195.887 127.789L189.621 123.967L189.66 123.889L196.925 124.3L197.591 122.046L186.997 121.929L186.39 123.928Z" fill="white"/>
<path d="M99.8725 192.997C117.855 193.006 135.447 187.744 150.475 177.858C165.502 167.973 177.307 153.899 184.431 137.373L182.473 136.55C175.503 152.637 163.996 166.341 149.363 175.983C134.73 185.625 117.605 190.787 100.085 190.837C82.5653 190.887 65.4112 185.822 50.7233 176.264C36.0355 166.705 24.4513 153.067 17.3894 137.02L15.4312 137.863C22.6355 154.268 34.4574 168.218 49.4529 178.009C64.4484 187.799 81.9682 193.007 99.8725 192.997Z" fill="white"/>
<path d="M188.897 139.392C181.38 156.742 168.967 171.519 153.18 181.91C137.393 192.3 118.919 197.853 100.024 197.886C81.1298 197.92 62.6363 192.432 46.8129 182.097C30.9895 171.762 18.5244 157.029 10.9471 139.705L8.98877 140.548C16.7307 158.249 29.4668 173.304 45.6345 183.865C61.8023 194.425 80.6985 200.033 100.005 200C119.311 199.967 138.188 194.294 154.319 183.677C170.451 173.061 183.135 157.962 190.816 140.235L188.897 139.392Z" fill="white"/>
<path d="M73.865 106.056C73.849 113.569 70.8468 120.769 65.5176 126.074C60.1884 131.379 52.9679 134.356 45.4419 134.351H31.8116C31.7372 134.353 31.6629 134.341 31.5936 134.314C31.5242 134.287 31.4612 134.245 31.4085 134.193C31.3558 134.14 31.3146 134.077 31.2874 134.008C31.2602 133.939 31.2476 133.865 31.2504 133.79V123.585C31.2503 123.435 31.3088 123.29 31.4135 123.182C31.5182 123.073 31.661 123.01 31.8116 123.005H45.4419C47.7488 123.116 50.0545 122.759 52.2191 121.955C54.3837 121.151 56.3621 119.916 58.0344 118.325C59.7067 116.735 61.038 114.822 61.9477 112.703C62.8574 110.583 63.3264 108.302 63.3264 105.996C63.3264 103.69 62.8574 101.408 61.9477 99.289C61.038 97.1696 59.7067 95.2567 58.0344 93.6663C56.3621 92.0759 54.3837 90.8411 52.2191 90.0367C50.0545 89.2324 47.7488 88.8752 45.4419 88.987H31.8116C31.7372 88.9898 31.6629 88.9772 31.5936 88.9501C31.5242 88.9229 31.4612 88.8817 31.4085 88.8291C31.3558 88.7765 31.3146 88.7136 31.2874 88.6444C31.2602 88.5751 31.2476 88.501 31.2504 88.4267V78.3214C31.2504 78.2478 31.2649 78.175 31.2931 78.107C31.3213 78.039 31.3627 77.9773 31.4148 77.9252C31.4669 77.8732 31.5288 77.8319 31.5969 77.8038C31.6649 77.7756 31.7379 77.7611 31.8116 77.7611H45.4419C52.9679 77.7558 60.1884 80.7326 65.5176 86.0378C70.8468 91.3429 73.849 98.5427 73.865 106.056Z" fill="white"/>
<path d="M136.364 106.056C136.361 108.29 136.8 110.503 137.656 112.568C138.511 114.633 139.766 116.509 141.348 118.089C142.931 119.669 144.81 120.922 146.879 121.775C148.947 122.629 151.164 123.067 153.402 123.065H167.052C167.203 123.07 167.346 123.133 167.45 123.242C167.555 123.35 167.614 123.495 167.613 123.645V133.85C167.616 133.925 167.604 133.999 167.576 134.068C167.549 134.137 167.508 134.2 167.455 134.253C167.403 134.305 167.34 134.347 167.27 134.374C167.201 134.401 167.127 134.414 167.052 134.411H153.502C145.969 134.411 138.745 131.423 133.418 126.106C128.092 120.788 125.099 113.576 125.099 106.056C125.099 98.5357 128.092 91.3236 133.418 86.006C138.745 80.6885 145.969 77.7011 153.502 77.7011H167.152C167.279 77.7423 167.388 77.8274 167.457 77.9411C167.527 78.0548 167.554 78.1897 167.533 78.3214V88.5267C167.536 88.6011 167.524 88.6752 167.496 88.7444C167.469 88.8137 167.428 88.8766 167.375 88.9292C167.322 88.9818 167.259 89.0229 167.19 89.0501C167.121 89.0773 167.047 89.0898 166.972 89.087H153.502C151.26 89.0765 149.039 89.5072 146.964 90.3545C144.889 91.2018 143.002 92.4491 141.41 94.0251C139.818 95.6011 138.553 97.4748 137.687 99.5391C136.822 101.603 136.372 103.818 136.364 106.056Z" fill="white"/>
<path d="M110.325 83.1239L120.087 77.481C120.203 77.4209 120.293 77.3209 120.341 77.1995C120.389 77.0781 120.391 76.9436 120.348 76.8206L117.421 66.8154C117.396 66.7347 117.353 66.6606 117.295 66.5982C117.238 66.5359 117.168 66.4867 117.09 66.4543C117.011 66.4219 116.927 66.407 116.842 66.4106C116.758 66.4142 116.675 66.4363 116.599 66.4752L99.3812 76.3204L82.2031 66.3151C82.1278 66.2762 82.0449 66.2541 81.9603 66.2505C81.8756 66.2469 81.7911 66.2618 81.7128 66.2943C81.6345 66.3267 81.5643 66.3758 81.507 66.4381C81.4497 66.5005 81.4068 66.5746 81.3812 66.6553L78.4147 76.6605C78.384 76.7861 78.3947 76.9182 78.4453 77.0372C78.4959 77.1561 78.5835 77.2556 78.6953 77.3209L88.477 82.9638L73.8846 133.71C73.8628 133.795 73.8609 133.883 73.8791 133.968C73.8974 134.053 73.9352 134.133 73.9897 134.201C74.0442 134.269 74.1137 134.323 74.1929 134.36C74.2721 134.396 74.3587 134.413 74.4458 134.411H85.0694C85.1925 134.419 85.3144 134.383 85.4135 134.31C85.5126 134.236 85.5824 134.13 85.6106 134.011L99.3812 86.3256L113.192 134.031C113.22 134.15 113.29 134.256 113.389 134.33C113.488 134.403 113.61 134.439 113.733 134.431H124.437C124.522 134.43 124.607 134.411 124.683 134.373C124.76 134.335 124.827 134.28 124.879 134.213C124.931 134.145 124.967 134.067 124.984 133.983C125.002 133.899 124.999 133.813 124.978 133.73L110.325 83.1239Z" fill="white"/>
</g>
<defs>
<clipPath id="clip0_142_14340">
<rect width="200" height="200" fill="white"/>
</clipPath>
</defs>
</svg>
