<svg width="17" height="16" viewBox="0 0 17 16" fill="none" xmlns="http://www.w3.org/2000/svg">
<path d="M16.4918 12.634C16.5099 12.7573 16.4979 12.883 16.4566 13.0008C16.4154 13.1186 16.3462 13.225 16.2547 13.3113L14.0026 15.5494C13.8891 15.6683 13.7545 15.7657 13.6053 15.837C13.4521 15.9098 13.2887 15.9597 13.1205 15.9852L13.0177 15.9926C12.9619 15.9926 12.8878 16 12.7987 16C12.4497 15.9872 12.1019 15.9505 11.758 15.8903C11.1506 15.7787 10.5589 15.5966 9.99532 15.3478C9.16933 14.9879 8.37902 14.5537 7.63448 14.051C6.61497 13.3592 5.67231 12.5644 4.822 11.6795C4.10759 10.9872 3.45095 10.2398 2.85841 9.44437C2.3933 8.81765 1.97483 8.15885 1.60624 7.47309C1.32323 6.94522 1.08479 6.39547 0.893304 5.82937C0.754061 5.41399 0.647017 4.98888 0.573087 4.55767C0.520116 4.28065 0.495825 3.99909 0.500585 3.71728C0.51569 3.5157 0.520221 3.40899 0.520221 3.37934C0.545429 3.2122 0.596359 3.04978 0.671267 2.89764C0.740591 2.74749 0.8391 2.61206 0.961275 2.49894L3.21941 0.246041C3.28695 0.170921 3.36958 0.110294 3.4621 0.067957C3.55463 0.0256203 3.65507 0.0024853 3.75713 8.3446e-07C3.89824 -0.000228534 4.03519 0.0468334 4.14532 0.133396C4.2572 0.22024 4.35279 0.32557 4.42777 0.444651L6.24032 3.88921C6.34067 4.07031 6.37021 4.28112 6.3234 4.48208C6.28392 4.68645 6.18351 4.87473 6.0349 5.02307L5.21321 5.85456C5.18539 5.88629 5.16525 5.92379 5.1543 5.96424C5.13857 6.00503 5.12989 6.04811 5.12863 6.09171C5.18994 6.3755 5.29163 6.64943 5.43072 6.90542C5.61269 7.25133 5.82177 7.58285 6.05605 7.89699C6.42098 8.37747 6.82509 8.82805 7.26441 9.24428C7.68388 9.68334 8.13847 10.0888 8.62383 10.4567C8.93705 10.6928 9.26832 10.9048 9.61469 11.0911C9.80487 11.1974 10.0078 11.2801 10.2189 11.3371L10.4303 11.3786C10.4685 11.3758 10.5062 11.3678 10.5421 11.3549C10.5826 11.343 10.6198 11.3222 10.6509 11.2941L11.616 10.3129C11.8084 10.1344 12.0642 10.0365 12.329 10.0402C12.4867 10.033 12.6434 10.0684 12.7821 10.1425H12.7987L16.0689 12.0693C16.1755 12.1279 16.2683 12.208 16.3412 12.3043C16.4141 12.4006 16.4654 12.5109 16.4918 12.6281" fill="white"/>
</svg>
