<svg width="23" height="18" viewBox="0 0 23 18" fill="none" xmlns="http://www.w3.org/2000/svg">
<path d="M7.03226 18C15.3905 18 19.9613 11.0756 19.9613 5.07098C19.9613 4.87432 19.9573 4.67856 19.9484 4.48361C20.8377 3.84012 21.6053 3.04333 22.2151 2.13058C21.4009 2.49253 20.5247 2.73616 19.6057 2.84601C20.5437 2.28339 21.264 1.39353 21.6038 0.332664C20.7117 0.861856 19.7359 1.23488 18.7183 1.43567C17.8891 0.552434 16.7087 0 15.4014 0C12.892 0 10.8571 2.03501 10.8571 4.54344C10.8571 4.90004 10.897 5.2469 10.975 5.57956C7.1983 5.38952 3.84943 3.58135 1.60818 0.831884C1.20452 1.5253 0.992181 2.31344 0.99287 3.11579C0.99287 4.69231 1.7951 6.08406 3.01502 6.89825C2.29343 6.87624 1.58767 6.68133 0.957047 6.32991C0.956378 6.34902 0.956378 6.3676 0.956378 6.38796C0.956378 8.58863 2.52271 10.426 4.60194 10.8424C4.21142 10.9487 3.80846 11.0025 3.40372 11.0023C3.11709 11.0021 2.83112 10.9747 2.54969 10.9203C3.12821 12.7258 4.80573 14.0397 6.79458 14.0764C5.23932 15.2954 3.28012 16.0215 1.1508 16.0215C0.784472 16.0215 0.422599 16.0007 0.0668945 15.9586C2.07797 17.2476 4.46593 17.9998 7.03248 17.9998" fill="#CCB4CC"/>
</svg>
