<svg width="56" height="56" viewBox="0 0 56 56" fill="none" xmlns="http://www.w3.org/2000/svg">
<path d="M35.8419 22.8419L35.8 22.8M20.2419 22.8419L20.2 22.8M17.6 35.8C17.6 35.8 17.9254 36.4508 18.6912 37.2919C20.0903 38.8282 22.9594 41 28 41C33.0406 41 35.9097 38.8282 37.3088 37.2919C38.0747 36.4508 38.4 35.8 38.4 35.8M28 54C13.6406 54 2 42.3593 2 28C2 13.6406 13.6406 2 28 2C42.3593 2 54 13.6406 54 28C54 42.3593 42.3593 54 28 54Z" stroke="#483248" stroke-width="3" stroke-linecap="round" stroke-linejoin="round"/>
</svg>
